<svg width="358" height="218" viewBox="0 0 358 218" fill="none" xmlns="http://www.w3.org/2000/svg">
<path fill-rule="evenodd" clip-rule="evenodd" d="M55.1516 11.4449C39.1703 14.2967 29.8362 31.3247 36.1365 46.1335L36.8033 47.6998L36.0244 48.5539C35.5964 49.0234 33.5178 51.196 31.4058 53.3818L27.5655 57.3556L25.7347 57.1249C15.0765 55.7836 4.53361 62.7946 1.18711 73.4495C-3.56979 88.5967 6.45591 103.084 22.5683 104.344L24.2442 104.476L29.892 109.99C39.8652 119.728 40.9505 120.502 46.0959 121.55C60.2379 124.433 72.6506 111.386 69.102 97.3693C67.8303 92.3455 67.3017 91.6844 53.4548 77.8017C46.9686 71.2988 41.6445 65.9004 41.6226 65.8055C41.6012 65.7102 43.0025 64.1535 44.737 62.3456L47.89 59.0587L49.5659 59.8661C59.1955 64.5067 72.2483 61.5258 79.245 53.0882C94.7449 34.3972 79.0028 7.18944 55.1516 11.4449ZM63.5325 23.6651C71.9519 26.106 75.7207 35.676 71.2364 43.2274C66.4705 51.2522 55.1864 51.9486 49.5234 44.5668C41.6493 34.3033 51.1793 20.0845 63.5325 23.6651ZM26.758 69.5281C34.2642 71.7507 37.5769 80.7354 33.2661 87.1811C25.8781 98.2268 9.14418 90.9556 12.1098 77.9876C13.5374 71.7435 20.5545 67.6911 26.758 69.5281ZM50.7556 93.3235C55.9314 98.4751 56.2408 98.8621 56.5592 100.584C57.3185 104.692 54.4967 108.698 50.6154 109.024C47.4667 109.288 46.0063 108.415 41.0459 103.307L37.3667 99.5185L38.0669 98.9479C40.9858 96.5671 43.4763 93.2077 45.1212 89.4318C45.4062 88.7778 45.6598 88.2602 45.6846 88.2816C45.7093 88.3035 47.9915 90.5724 50.7556 93.3235Z" fill="#1B1B1B"/>
<path fill-rule="evenodd" clip-rule="evenodd" d="M41.3334 55.3969L40.7863 56.0017L41.3916 55.455C41.7243 55.1543 41.9965 54.8816 41.9965 54.8497C41.9965 54.7058 41.843 54.8325 41.3334 55.3969ZM59.7657 74.3878L59.219 74.9931L59.8243 74.4464C60.157 74.1452 60.4292 73.873 60.4292 73.8411C60.4292 73.6971 60.2757 73.8239 59.7657 74.3878ZM13.9313 97.5621C14.2144 97.605 14.6333 97.6041 14.8621 97.5598C15.0914 97.5154 14.8598 97.4806 14.3478 97.4821C13.8355 97.4835 13.6481 97.5197 13.9313 97.5621ZM32.8654 132.665C33.6371 133.487 33.8044 133.635 33.8044 133.495C33.8044 133.465 33.4064 133.067 32.9197 132.611L32.0356 131.78L32.8654 132.665ZM34.9135 134.713C35.6852 135.535 35.8525 135.683 35.8525 135.543C35.8525 135.513 35.4545 135.115 34.9679 134.659L34.0837 133.828L34.9135 134.713ZM23.4708 141.183C24.079 141.797 24.6181 142.3 24.6695 142.3C24.7205 142.3 24.2649 141.797 23.6571 141.183C23.049 140.569 22.5099 140.066 22.4584 140.066C22.4074 140.066 22.8631 140.569 23.4708 141.183ZM54.9249 144.395L54.3782 145L54.9831 144.453C55.3162 144.152 55.5884 143.88 55.5884 143.848C55.5884 143.704 55.4349 143.831 54.9249 144.395Z" fill="#9FA09E"/>
<path d="M172.31 58.1733H156.372C155.918 55.5597 155.08 53.2443 153.858 51.2273C152.636 49.1818 151.116 47.4489 149.298 46.0284C147.48 44.608 145.406 43.5426 143.077 42.8324C140.776 42.0938 138.29 41.7244 135.619 41.7244C130.875 41.7244 126.67 42.9176 123.006 45.304C119.341 47.6619 116.472 51.1278 114.398 55.7017C112.324 60.2472 111.287 65.8011 111.287 72.3636C111.287 79.0398 112.324 84.6648 114.398 89.2386C116.5 93.7841 119.369 97.2216 123.006 99.5511C126.67 101.852 130.861 103.003 135.577 103.003C138.19 103.003 140.634 102.662 142.906 101.98C145.207 101.27 147.267 100.233 149.085 98.8693C150.932 97.5057 152.48 95.8295 153.73 93.8409C155.009 91.8523 155.889 89.5795 156.372 87.0227L172.31 87.108C171.713 91.2557 170.42 95.1477 168.432 98.7841C166.472 102.42 163.901 105.631 160.719 108.415C157.537 111.17 153.815 113.33 149.554 114.892C145.293 116.426 140.563 117.193 135.364 117.193C127.693 117.193 120.847 115.418 114.824 111.866C108.801 108.315 104.057 103.188 100.591 96.483C97.125 89.7784 95.392 81.7386 95.392 72.3636C95.392 62.9602 97.1392 54.9205 100.634 48.2443C104.128 41.5398 108.886 36.4119 114.909 32.8608C120.932 29.3097 127.75 27.5341 135.364 27.5341C140.222 27.5341 144.739 28.2159 148.915 29.5795C153.091 30.9432 156.813 32.946 160.08 35.5881C163.347 38.2017 166.031 41.4119 168.134 45.2188C170.264 48.9972 171.656 53.3153 172.31 58.1733ZM186.788 116V28.7273H242.697V41.9801H202.597V65.6733H238.862V78.9261H202.597V116H186.788ZM257.1 28.7273H276.447L302.356 91.9659H303.379L329.288 28.7273H348.634V116H333.464V56.0426H332.654L308.535 115.744H297.2L273.08 55.9148H272.271V116H257.1V28.7273Z" fill="#006EF9"/>
<path d="M87.1887 154.761H81.6105C81.4514 153.846 81.1581 153.036 80.7306 152.33C80.303 151.614 79.771 151.007 79.1347 150.51C78.4983 150.013 77.7725 149.64 76.9571 149.391C76.1517 149.133 75.2817 149.004 74.347 149.004C72.6865 149.004 71.2149 149.421 69.9323 150.256C68.6496 151.082 67.6453 152.295 66.9195 153.896C66.1936 155.487 65.8307 157.43 65.8307 159.727C65.8307 162.064 66.1936 164.033 66.9195 165.634C67.6553 167.224 68.6595 168.428 69.9323 169.243C71.2149 170.048 72.6816 170.451 74.3321 170.451C75.2469 170.451 76.102 170.332 76.8975 170.093C77.7029 169.844 78.4237 169.482 79.0601 169.004C79.7064 168.527 80.2483 167.94 80.6858 167.244C81.1333 166.548 81.4415 165.753 81.6105 164.858L87.1887 164.888C86.9798 166.339 86.5274 167.702 85.8314 168.974C85.1453 170.247 84.2455 171.371 83.1318 172.345C82.0182 173.31 80.7156 174.065 79.2242 174.612C77.7327 175.149 76.0771 175.418 74.2575 175.418C71.5729 175.418 69.1766 174.796 67.0686 173.553C64.9607 172.31 63.3002 170.516 62.0871 168.169C60.874 165.822 60.2675 163.009 60.2675 159.727C60.2675 156.436 60.879 153.622 62.102 151.286C63.325 148.939 64.9905 147.144 67.0985 145.901C69.2064 144.658 71.5928 144.037 74.2575 144.037C75.9578 144.037 77.5388 144.276 79.0004 144.753C80.4621 145.23 81.7646 145.931 82.9081 146.856C84.0516 147.771 84.9912 148.894 85.727 150.227C86.4727 151.549 86.96 153.06 87.1887 154.761ZM119.55 159.727C119.55 163.018 118.934 165.837 117.701 168.184C116.478 170.521 114.807 172.31 112.689 173.553C110.581 174.796 108.19 175.418 105.515 175.418C102.84 175.418 100.444 174.796 98.3263 173.553C96.2183 172.3 94.5479 170.506 93.3149 168.169C92.0919 165.822 91.4804 163.009 91.4804 159.727C91.4804 156.436 92.0919 153.622 93.3149 151.286C94.5479 148.939 96.2183 147.144 98.3263 145.901C100.444 144.658 102.84 144.037 105.515 144.037C108.19 144.037 110.581 144.658 112.689 145.901C114.807 147.144 116.478 148.939 117.701 151.286C118.934 153.622 119.55 156.436 119.55 159.727ZM113.987 159.727C113.987 157.411 113.624 155.457 112.898 153.866C112.182 152.265 111.188 151.057 109.915 150.241C108.642 149.416 107.176 149.004 105.515 149.004C103.855 149.004 102.388 149.416 101.115 150.241C99.8426 151.057 98.8433 152.265 98.1175 153.866C97.4015 155.457 97.0436 157.411 97.0436 159.727C97.0436 162.044 97.4015 164.003 98.1175 165.604C98.8433 167.195 99.8426 168.403 101.115 169.228C102.388 170.043 103.855 170.451 105.515 170.451C107.176 170.451 108.642 170.043 109.915 169.228C111.188 168.403 112.182 167.195 112.898 165.604C113.624 164.003 113.987 162.044 113.987 159.727ZM149.883 144.455V175H144.961L130.568 154.194H130.315V175H124.781V144.455H129.733L144.111 165.276H144.379V144.455H149.883ZM181.014 144.455V175H176.092L161.699 154.194H161.446V175H155.912V144.455H160.864L175.242 165.276H175.51V144.455H181.014ZM187.043 175V144.455H206.91V149.093H192.576V157.386H205.88V162.024H192.576V170.362H207.029V175H187.043ZM238.7 154.761H233.122C232.963 153.846 232.67 153.036 232.242 152.33C231.815 151.614 231.283 151.007 230.646 150.51C230.01 150.013 229.284 149.64 228.469 149.391C227.663 149.133 226.793 149.004 225.859 149.004C224.198 149.004 222.727 149.421 221.444 150.256C220.161 151.082 219.157 152.295 218.431 153.896C217.705 155.487 217.342 157.43 217.342 159.727C217.342 162.064 217.705 164.033 218.431 165.634C219.167 167.224 220.171 168.428 221.444 169.243C222.727 170.048 224.193 170.451 225.844 170.451C226.759 170.451 227.614 170.332 228.409 170.093C229.215 169.844 229.935 169.482 230.572 169.004C231.218 168.527 231.76 167.94 232.198 167.244C232.645 166.548 232.953 165.753 233.122 164.858L238.7 164.888C238.492 166.339 238.039 167.702 237.343 168.974C236.657 170.247 235.757 171.371 234.644 172.345C233.53 173.31 232.227 174.065 230.736 174.612C229.244 175.149 227.589 175.418 225.769 175.418C223.085 175.418 220.688 174.796 218.58 173.553C216.472 172.31 214.812 170.516 213.599 168.169C212.386 165.822 211.779 163.009 211.779 159.727C211.779 156.436 212.391 153.622 213.614 151.286C214.837 148.939 216.502 147.144 218.61 145.901C220.718 144.658 223.104 144.037 225.769 144.037C227.47 144.037 229.051 144.276 230.512 144.753C231.974 145.23 233.276 145.931 234.42 146.856C235.563 147.771 236.503 148.894 237.239 150.227C237.984 151.549 238.472 153.06 238.7 154.761ZM242.425 149.093V144.455H266.796V149.093H257.355V175H251.866V149.093H242.425ZM297.435 159.727C297.435 163.018 296.818 165.837 295.585 168.184C294.362 170.521 292.692 172.31 290.574 173.553C288.466 174.796 286.075 175.418 283.4 175.418C280.725 175.418 278.329 174.796 276.211 173.553C274.103 172.3 272.433 170.506 271.2 168.169C269.977 165.822 269.365 163.009 269.365 159.727C269.365 156.436 269.977 153.622 271.2 151.286C272.433 148.939 274.103 147.144 276.211 145.901C278.329 144.658 280.725 144.037 283.4 144.037C286.075 144.037 288.466 144.658 290.574 145.901C292.692 147.144 294.362 148.939 295.585 151.286C296.818 153.622 297.435 156.436 297.435 159.727ZM291.872 159.727C291.872 157.411 291.509 155.457 290.783 153.866C290.067 152.265 289.073 151.057 287.8 150.241C286.527 149.416 285.06 149.004 283.4 149.004C281.739 149.004 280.273 149.416 279 150.241C277.727 151.057 276.728 152.265 276.002 153.866C275.286 155.457 274.928 157.411 274.928 159.727C274.928 162.044 275.286 164.003 276.002 165.604C276.728 167.195 277.727 168.403 279 169.228C280.273 170.043 281.739 170.451 283.4 170.451C285.06 170.451 286.527 170.043 287.8 169.228C289.073 168.403 290.067 167.195 290.783 165.604C291.509 164.003 291.872 162.044 291.872 159.727ZM302.666 175V144.455H314.121C316.467 144.455 318.436 144.862 320.027 145.678C321.628 146.493 322.836 147.636 323.651 149.108C324.476 150.57 324.889 152.275 324.889 154.224C324.889 156.183 324.472 157.883 323.636 159.325C322.811 160.756 321.593 161.865 319.982 162.651C318.371 163.426 316.393 163.814 314.046 163.814H305.888V159.22H313.3C314.672 159.22 315.796 159.031 316.671 158.653C317.546 158.266 318.192 157.704 318.61 156.968C319.038 156.222 319.251 155.308 319.251 154.224C319.251 153.14 319.038 152.215 318.61 151.45C318.182 150.674 317.531 150.087 316.656 149.69C315.781 149.282 314.653 149.078 313.271 149.078H308.199V175H302.666ZM318.446 161.159L326.008 175H319.833L312.405 161.159H318.446ZM61.6735 211V189.182H75.6507V192.495H65.6259V198.418H74.6919V201.732H65.6259V211H61.6735ZM79.3288 211H75.1101L82.7912 189.182H87.6705L95.3622 211H91.1435L85.3161 193.656H85.1456L79.3288 211ZM79.4673 202.445H90.973V205.62H79.4673V202.445ZM98.236 211V189.182H106.588C108.165 189.182 109.475 189.43 110.519 189.928C111.57 190.418 112.355 191.089 112.874 191.941C113.399 192.793 113.662 193.759 113.662 194.839C113.662 195.727 113.492 196.487 113.151 197.119C112.81 197.744 112.352 198.251 111.776 198.642C111.201 199.033 110.558 199.313 109.848 199.484V199.697C110.622 199.739 111.365 199.977 112.075 200.411C112.792 200.837 113.378 201.44 113.833 202.222C114.287 203.003 114.514 203.947 114.514 205.055C114.514 206.185 114.241 207.2 113.694 208.102C113.147 208.997 112.323 209.704 111.222 210.222C110.122 210.741 108.737 211 107.068 211H98.236ZM102.188 207.697H106.439C107.874 207.697 108.907 207.424 109.539 206.877C110.178 206.323 110.498 205.613 110.498 204.746C110.498 204.1 110.338 203.518 110.019 202.999C109.699 202.474 109.244 202.062 108.655 201.763C108.066 201.458 107.362 201.305 106.546 201.305H102.188V207.697ZM102.188 198.461H106.098C106.78 198.461 107.394 198.337 107.941 198.088C108.488 197.832 108.918 197.474 109.23 197.012C109.55 196.543 109.71 195.989 109.71 195.35C109.71 194.505 109.411 193.809 108.815 193.262C108.225 192.715 107.348 192.442 106.183 192.442H102.188V198.461ZM117.953 211V189.182H126.135C127.811 189.182 129.217 189.473 130.353 190.055C131.497 190.638 132.36 191.455 132.942 192.506C133.532 193.55 133.826 194.768 133.826 196.16C133.826 197.559 133.528 198.773 132.931 199.803C132.342 200.826 131.472 201.618 130.321 202.179C129.171 202.733 127.757 203.01 126.081 203.01H120.254V199.729H125.549C126.529 199.729 127.331 199.594 127.956 199.324C128.581 199.047 129.043 198.646 129.341 198.12C129.647 197.587 129.799 196.934 129.799 196.16C129.799 195.386 129.647 194.725 129.341 194.178C129.036 193.624 128.571 193.205 127.946 192.921C127.321 192.63 126.515 192.484 125.527 192.484H121.905V211H117.953ZM129.224 201.114L134.625 211H130.215L124.909 201.114H129.224ZM141.417 189.182V211H137.464V189.182H141.417ZM164.372 196.543H160.388C160.274 195.89 160.065 195.311 159.759 194.807C159.454 194.295 159.074 193.862 158.619 193.507C158.165 193.152 157.646 192.886 157.064 192.708C156.489 192.523 155.867 192.431 155.2 192.431C154.014 192.431 152.963 192.729 152.046 193.326C151.13 193.915 150.413 194.782 149.894 195.925C149.376 197.062 149.117 198.45 149.117 200.091C149.117 201.76 149.376 203.166 149.894 204.31C150.42 205.446 151.137 206.305 152.046 206.888C152.963 207.463 154.01 207.751 155.189 207.751C155.843 207.751 156.453 207.665 157.021 207.495C157.597 207.317 158.112 207.058 158.566 206.717C159.028 206.376 159.415 205.957 159.727 205.46C160.047 204.963 160.267 204.395 160.388 203.756L164.372 203.777C164.223 204.814 163.9 205.787 163.403 206.696C162.913 207.605 162.27 208.408 161.475 209.104C160.679 209.793 159.749 210.332 158.683 210.723C157.618 211.107 156.436 211.298 155.136 211.298C153.218 211.298 151.507 210.854 150.001 209.967C148.495 209.079 147.309 207.797 146.443 206.121C145.576 204.445 145.143 202.435 145.143 200.091C145.143 197.74 145.58 195.73 146.453 194.061C147.327 192.385 148.517 191.103 150.022 190.215C151.528 189.327 153.232 188.884 155.136 188.884C156.35 188.884 157.48 189.054 158.524 189.395C159.568 189.736 160.498 190.237 161.315 190.897C162.132 191.55 162.803 192.353 163.328 193.305C163.861 194.249 164.209 195.329 164.372 196.543ZM175.433 189.182H180.27L186.747 204.991H187.003L193.48 189.182H198.317V211H194.524V196.011H194.322L188.292 210.936H185.458L179.428 195.979H179.226V211H175.433V189.182ZM205.423 211H201.204L208.885 189.182H213.764L221.456 211H217.237L211.41 193.656H211.239L205.423 211ZM205.561 202.445H217.067V205.62H205.561V202.445ZM242.259 189.182V211H238.744L228.463 196.138H228.282V211H224.33V189.182H227.867L238.137 204.054H238.328V189.182H242.259ZM249.368 211H245.149L252.83 189.182H257.71L265.401 211H261.183L255.355 193.656H255.185L249.368 211ZM249.506 202.445H261.012V205.62H249.506V202.445ZM281.866 196.149C281.689 195.574 281.444 195.059 281.131 194.604C280.826 194.143 280.456 193.749 280.023 193.422C279.597 193.095 279.107 192.85 278.553 192.687C277.999 192.516 277.395 192.431 276.742 192.431C275.57 192.431 274.526 192.726 273.61 193.315C272.694 193.905 271.973 194.771 271.447 195.915C270.929 197.051 270.669 198.436 270.669 200.07C270.669 201.717 270.929 203.113 271.447 204.256C271.966 205.4 272.686 206.27 273.61 206.866C274.533 207.456 275.605 207.751 276.827 207.751C277.935 207.751 278.894 207.538 279.703 207.112C280.52 206.685 281.149 206.082 281.589 205.3C282.029 204.512 282.25 203.589 282.25 202.531L283.145 202.669H277.221V199.58H286.074V202.2C286.074 204.068 285.676 205.684 284.881 207.048C284.086 208.411 282.992 209.462 281.6 210.201C280.208 210.933 278.61 211.298 276.806 211.298C274.796 211.298 273.031 210.847 271.511 209.945C269.998 209.036 268.816 207.747 267.963 206.078C267.118 204.402 266.696 202.413 266.696 200.112C266.696 198.351 266.944 196.778 267.441 195.393C267.946 194.008 268.649 192.832 269.551 191.866C270.453 190.893 271.511 190.155 272.725 189.651C273.94 189.139 275.261 188.884 276.689 188.884C277.896 188.884 279.022 189.061 280.066 189.416C281.11 189.764 282.037 190.261 282.846 190.908C283.663 191.554 284.334 192.321 284.86 193.209C285.385 194.097 285.73 195.077 285.893 196.149H281.866ZM289.896 211V189.182H304.086V192.495H293.849V198.418H303.351V201.732H293.849V207.687H304.172V211H289.896ZM308.119 211V189.182H316.301C317.977 189.182 319.383 189.473 320.519 190.055C321.663 190.638 322.526 191.455 323.108 192.506C323.698 193.55 323.992 194.768 323.992 196.16C323.992 197.559 323.694 198.773 323.097 199.803C322.508 200.826 321.638 201.618 320.487 202.179C319.337 202.733 317.923 203.01 316.247 203.01H310.42V199.729H315.715C316.695 199.729 317.497 199.594 318.122 199.324C318.747 199.047 319.209 198.646 319.507 198.12C319.813 197.587 319.965 196.934 319.965 196.16C319.965 195.386 319.813 194.725 319.507 194.178C319.202 193.624 318.737 193.205 318.112 192.921C317.487 192.63 316.681 192.484 315.693 192.484H312.071V211H308.119ZM319.39 201.114L324.791 211H320.381L315.075 201.114H319.39Z" fill="black"/>
</svg>
