<svg width="145" height="57" viewBox="0 0 145 57" fill="none" xmlns="http://www.w3.org/2000/svg">
<path d="M51.4231 15.0963C51.4138 14.9863 51.4068 14.8765 51.3623 14.7688C51.3505 14.7407 51.3272 14.722 51.3131 14.6939C51.2828 14.6355 51.2477 14.5864 51.2079 14.5326C51.1284 14.4226 51.0395 14.3314 50.932 14.2566C50.9039 14.2379 50.8922 14.2028 50.8618 14.1865L26.3056 0.154326C25.9454 -0.0514421 25.5057 -0.0514421 25.1456 0.154326L0.58935 14.1865C0.561286 14.2052 0.549556 14.2379 0.521491 14.2566C0.409234 14.3338 0.313311 14.4273 0.23153 14.5443C0.198752 14.5911 0.166084 14.6332 0.140322 14.6846C0.123987 14.715 0.098225 14.736 0.0841928 14.7688C0.0327782 14.8974 0.0163343 15.0307 0.01173 15.1617C0.01173 15.1757 0 15.1898 0 15.2038V15.2225C0 15.2249 0 15.2249 0 15.2273V40.9131C0 40.9154 0 40.9201 0 40.9224V40.9294C0 40.9528 0.0163342 40.9738 0.018746 40.9973C0.0280642 41.161 0.0538264 41.3248 0.133305 41.4744C0.138019 41.4837 0.147338 41.4861 0.152052 41.4954C0.182418 41.5493 0.236244 41.5843 0.276039 41.6335C0.362534 41.741 0.446727 41.8462 0.561395 41.9188C0.573125 41.9258 0.57773 41.9399 0.587158 41.9446L25.1434 55.9767C25.3258 56.0797 25.5246 56.1311 25.7257 56.1311C25.9269 56.1311 26.1257 56.0797 26.3058 55.9767L50.862 41.9446C50.8738 41.9376 50.8784 41.9235 50.8901 41.9165C50.9976 41.8511 51.0725 41.7528 51.1544 41.6546C51.2012 41.5985 51.2644 41.5564 51.2994 41.4932C51.3042 41.4862 51.3112 41.4815 51.3158 41.4745C51.3789 41.3529 51.3906 41.2196 51.4093 41.0886C51.4163 41.0348 51.4514 40.9857 51.4514 40.9295V15.2038C51.4512 15.1664 51.4255 15.1336 51.4231 15.0963ZM47.597 15.0167L39.0187 18.4475L29.5845 4.72409L47.597 15.0167ZM25.7256 3.23438L36.3667 18.7118H15.0846L25.7256 3.23438ZM21.8598 4.7265L12.4279 18.4476L3.85182 15.0167L21.8598 4.7265ZM2.33865 16.9298L11.1929 20.4729L2.33865 36.4134V16.9298ZM12.8582 22.2971L23.6371 41.8952L3.05901 39.9355L12.8582 22.2971ZM24.5563 52.9456L6.45479 42.6039L24.5563 44.3111V52.9456ZM25.7256 40.8405L14.8414 21.0505H36.61L25.7256 40.8405ZM26.8949 52.9456V44.3321L44.9871 42.6085L26.8949 52.9456ZM27.807 41.9163L38.5954 22.3041L48.3922 39.9378L27.807 41.9163ZM49.1125 36.4181L40.2535 20.4729L49.1125 16.9298V36.4181Z" fill="#006EF9"/>
<path d="M83.9929 22.652H79.2116C79.0753 21.8679 78.8239 21.1733 78.4574 20.5682C78.0909 19.9545 77.6349 19.4347 77.0895 19.0085C76.544 18.5824 75.9219 18.2628 75.223 18.0497C74.5327 17.8281 73.7869 17.7173 72.9858 17.7173C71.5625 17.7173 70.3011 18.0753 69.2017 18.7912C68.1023 19.4986 67.2415 20.5384 66.6193 21.9105C65.9972 23.2741 65.6861 24.9403 65.6861 26.9091C65.6861 28.9119 65.9972 30.5994 66.6193 31.9716C67.25 33.3352 68.1108 34.3665 69.2017 35.0653C70.3011 35.7557 71.5582 36.1009 72.973 36.1009C73.7571 36.1009 74.4901 35.9986 75.1719 35.794C75.8622 35.581 76.4801 35.2699 77.0256 34.8608C77.5795 34.4517 78.044 33.9489 78.419 33.3523C78.8026 32.7557 79.0668 32.0739 79.2116 31.3068L83.9929 31.3324C83.8139 32.5767 83.4261 33.7443 82.8295 34.8352C82.2415 35.9261 81.4702 36.8892 80.5156 37.7244C79.5611 38.5511 78.4446 39.1989 77.1662 39.6676C75.8878 40.1278 74.4688 40.358 72.9091 40.358C70.608 40.358 68.554 39.8253 66.7472 38.7599C64.9403 37.6946 63.517 36.1562 62.4773 34.1449C61.4375 32.1335 60.9176 29.7216 60.9176 26.9091C60.9176 24.0881 61.4418 21.6761 62.4901 19.6733C63.5384 17.6619 64.9659 16.1236 66.7727 15.0582C68.5795 13.9929 70.625 13.4602 72.9091 13.4602C74.3665 13.4602 75.7216 13.6648 76.9744 14.0739C78.2273 14.483 79.3438 15.0838 80.3239 15.8764C81.304 16.6605 82.1094 17.6236 82.7401 18.7656C83.3793 19.8991 83.7969 21.1946 83.9929 22.652ZM88.3363 40V13.8182H105.109V17.794H93.0792V24.902H103.958V28.8778H93.0792V40H88.3363ZM109.43 13.8182H115.234L123.007 32.7898H123.314L131.086 13.8182H136.89V40H132.339V22.0128H132.096L124.86 39.9233H121.46L114.224 21.9744H113.981V40H109.43V13.8182Z" fill="black"/>
</svg>
