<svg width="473" height="177" viewBox="0 0 473 177" fill="none" xmlns="http://www.w3.org/2000/svg">
<path d="M162.154 47.6035C162.125 47.2568 162.103 46.9104 161.962 46.571C161.925 46.4825 161.852 46.4234 161.807 46.3349C161.712 46.1506 161.601 45.9958 161.476 45.826C161.225 45.4793 160.945 45.1917 160.605 44.9559C160.517 44.8968 160.48 44.7862 160.384 44.7347L82.9502 0.486642C81.8146 -0.162214 80.4281 -0.162214 79.2925 0.486642L1.85842 44.7347C1.76992 44.7938 1.73293 44.8968 1.64444 44.9559C1.29045 45.1993 0.987975 45.4942 0.730092 45.863C0.626732 46.0106 0.523717 46.1434 0.442481 46.3055C0.390973 46.4012 0.309736 46.4676 0.265488 46.571C0.10336 46.9765 0.0515076 47.3968 0.0369887 47.8099C0.0369887 47.8542 0 47.8984 0 47.9427V48.0018C0 48.009 0 48.009 0 48.0166V129.013C0 129.02 0 129.035 0 129.042V129.064C0 129.138 0.0515073 129.204 0.0591124 129.278C0.0884959 129.794 0.169733 130.311 0.420356 130.783C0.435221 130.812 0.464605 130.82 0.479469 130.849C0.575225 131.019 0.744957 131.129 0.870442 131.284C1.14319 131.623 1.40868 131.955 1.77027 132.184C1.80726 132.206 1.82177 132.25 1.8515 132.265L79.2856 176.513C79.8608 176.838 80.4875 177 81.1218 177C81.7562 177 82.3829 176.838 82.9509 176.513L160.385 132.265C160.422 132.243 160.436 132.199 160.473 132.177C160.813 131.97 161.049 131.661 161.307 131.351C161.454 131.174 161.654 131.041 161.764 130.842C161.779 130.82 161.801 130.805 161.816 130.783C162.015 130.4 162.052 129.979 162.111 129.566C162.133 129.396 162.243 129.242 162.243 129.065V47.9427C162.243 47.8248 162.162 47.7214 162.154 47.6035ZM150.089 47.3526L123.039 58.1712L93.2897 14.8966L150.089 47.3526ZM81.1215 10.1991L114.676 59.0047H47.5666L81.1215 10.1991ZM68.9312 14.9042L39.1892 58.1716L12.1461 47.3526L68.9312 14.9042ZM7.37456 53.3852L35.2951 64.5578L7.37456 114.824V53.3852ZM40.5461 70.31L74.5358 132.11L9.64607 125.93L40.5461 70.31ZM77.434 166.955L20.3541 134.344L77.434 139.728V166.955ZM81.1215 128.784L46.7999 66.3792H115.443L81.1215 128.784ZM84.8086 166.955V139.794L141.859 134.359L84.8086 166.955ZM87.6847 132.176L121.704 70.3322L152.597 125.937L87.6847 132.176ZM154.868 114.838L126.933 64.5578L154.868 53.3852V114.838Z" fill="#006EF9"/>
<path d="M287.31 65.1733H271.372C270.918 62.5597 270.08 60.2443 268.858 58.2273C267.636 56.1818 266.116 54.4489 264.298 53.0284C262.48 51.608 260.406 50.5426 258.077 49.8324C255.776 49.0938 253.29 48.7244 250.619 48.7244C245.875 48.7244 241.67 49.9176 238.006 52.304C234.341 54.6619 231.472 58.1278 229.398 62.7017C227.324 67.2472 226.287 72.8011 226.287 79.3636C226.287 86.0398 227.324 91.6648 229.398 96.2386C231.5 100.784 234.369 104.222 238.006 106.551C241.67 108.852 245.861 110.003 250.577 110.003C253.19 110.003 255.634 109.662 257.906 108.98C260.207 108.27 262.267 107.233 264.085 105.869C265.932 104.506 267.48 102.83 268.73 100.841C270.009 98.8523 270.889 96.5795 271.372 94.0227L287.31 94.108C286.713 98.2557 285.42 102.148 283.432 105.784C281.472 109.42 278.901 112.631 275.719 115.415C272.537 118.17 268.815 120.33 264.554 121.892C260.293 123.426 255.563 124.193 250.364 124.193C242.693 124.193 235.847 122.418 229.824 118.866C223.801 115.315 219.057 110.188 215.591 103.483C212.125 96.7784 210.392 88.7386 210.392 79.3636C210.392 69.9602 212.139 61.9205 215.634 55.2443C219.128 48.5398 223.886 43.4119 229.909 39.8608C235.932 36.3097 242.75 34.5341 250.364 34.5341C255.222 34.5341 259.739 35.2159 263.915 36.5795C268.091 37.9432 271.813 39.946 275.08 42.5881C278.347 45.2017 281.031 48.4119 283.134 52.2188C285.264 55.9972 286.656 60.3153 287.31 65.1733ZM301.788 123V35.7273H357.697V48.9801H317.597V72.6733H353.862V85.9261H317.597V123H301.788ZM372.1 35.7273H391.447L417.356 98.9659H418.379L444.288 35.7273H463.634V123H448.464V63.0426H447.654L423.535 122.744H412.2L388.08 62.9148H387.271V123H372.1V35.7273Z" fill="black"/>
</svg>
